<?xml version="1.0" encoding="UTF-8" standalone="no"?>
<!-- Created with Inkscape (http://www.inkscape.org/) -->

<svg
   xmlns:osb="http://www.openswatchbook.org/uri/2009/osb"
   xmlns:dc="http://purl.org/dc/elements/1.1/"
   xmlns:cc="http://creativecommons.org/ns#"
   xmlns:rdf="http://www.w3.org/1999/02/22-rdf-syntax-ns#"
   xmlns:svg="http://www.w3.org/2000/svg"
   xmlns="http://www.w3.org/2000/svg"
   xmlns:xlink="http://www.w3.org/1999/xlink"
   xmlns:sodipodi="http://sodipodi.sourceforge.net/DTD/sodipodi-0.dtd"
   xmlns:inkscape="http://www.inkscape.org/namespaces/inkscape"
   width="31.820717mm"
   height="46.894218mm"
   viewBox="0 0 31.820717 46.894218"
   version="1.1"
   id="svg1109"
   inkscape:version="0.92.3 (2405546, 2018-03-11)"
   sodipodi:docname="pdf-download.svg">
  <defs
     id="defs1103">
    <linearGradient
       inkscape:collect="always"
       xlink:href="#linearGradient1058"
       id="linearGradient1068"
       x1="287.13599"
       y1="285.77475"
       x2="350.07999"
       y2="285.77475"
       gradientUnits="userSpaceOnUse"
       gradientTransform="matrix(0.07680113,0,0,0.0831232,88.776793,121.00845)" />
    <linearGradient
       id="linearGradient1058"
       osb:paint="solid">
      <stop
         style="stop-color:#0c8916;stop-opacity:1;"
         offset="0"
         id="stop1056" />
    </linearGradient>
    <linearGradient
       inkscape:collect="always"
       xlink:href="#linearGradient1058"
       id="linearGradient1070"
       x1="187.82401"
       y1="285.79074"
       x2="269.46402"
       y2="285.79074"
       gradientUnits="userSpaceOnUse"
       gradientTransform="matrix(0.07680113,0,0,0.0831232,88.776793,121.00845)" />
    <linearGradient
       inkscape:collect="always"
       xlink:href="#linearGradient1058"
       id="linearGradient1066"
       x1="101.744"
       y1="285.21475"
       x2="171.60001"
       y2="285.21475"
       gradientUnits="userSpaceOnUse"
       gradientTransform="matrix(0.07680113,0,0,0.0831232,88.776793,121.00845)" />
    <linearGradient
       inkscape:collect="always"
       xlink:href="#linearGradient1064"
       id="linearGradient1060"
       x1="32"
       y1="280.97754"
       x2="416"
       y2="280.97754"
       gradientUnits="userSpaceOnUse"
       gradientTransform="matrix(0.07109349,0,0,0.07109349,89.357508,124.63027)" />
    <linearGradient
       id="linearGradient1064"
       osb:paint="solid">
      <stop
         style="stop-color:#ffffff;stop-opacity:1;"
         offset="0"
         id="stop1062" />
    </linearGradient>
    <linearGradient
       inkscape:collect="always"
       xlink:href="#linearGradient1058"
       id="linearGradient1076"
       x1="32"
       y1="280.97754"
       x2="416"
       y2="280.97754"
       gradientUnits="userSpaceOnUse"
       gradientTransform="matrix(0.07109349,0,0,0.07109349,89.357508,124.63027)" />
    <linearGradient
       gradientTransform="translate(29.044663,101.41055)"
       inkscape:collect="always"
       xlink:href="#linearGradient1169"
       id="linearGradient1171"
       x1="71.22068"
       y1="62.698505"
       x2="90.825867"
       y2="62.698505"
       gradientUnits="userSpaceOnUse" />
    <linearGradient
       id="linearGradient1169"
       osb:paint="solid">
      <stop
         style="stop-color:#7dff8a;stop-opacity:1;"
         offset="0"
         id="stop1167" />
    </linearGradient>
  </defs>
  <sodipodi:namedview
     id="base"
     pagecolor="#ffffff"
     bordercolor="#666666"
     borderopacity="1.0"
     inkscape:pageopacity="0.0"
     inkscape:pageshadow="2"
     inkscape:zoom="0.35"
     inkscape:cx="-451.29493"
     inkscape:cy="85.761852"
     inkscape:document-units="mm"
     inkscape:current-layer="layer1"
     showgrid="false"
     inkscape:window-width="3200"
     inkscape:window-height="1721"
     inkscape:window-x="0"
     inkscape:window-y="0"
     inkscape:window-maximized="1" />
  <metadata
     id="metadata1106">
    <rdf:RDF>
      <cc:Work
         rdf:about="">
        <dc:format>image/svg+xml</dc:format>
        <dc:type
           rdf:resource="http://purl.org/dc/dcmitype/StillImage" />
        <dc:title></dc:title>
      </cc:Work>
    </rdf:RDF>
  </metadata>
  <g
     inkscape:label="Layer 1"
     inkscape:groupmode="layer"
     id="layer1"
     transform="translate(-92.190832,-124.63027)">
    <g
       style="display:inline"
       transform="matrix(0.07109349,0,0,0.07109349,89.886673,124.63027)"
       id="g5385">
      <path
         sodipodi:nodetypes="ssssccccssccs"
         inkscape:connector-curvature="0"
         id="path5337"
         transform="matrix(3.3985159,0,0,3.3985159,-361.94354,-250.9189)"
         d="m 144.16406,73.832031 c -5.17873,0 -9.41601,4.237285 -9.41601,9.416016 V 212.88016 c 0,5.17873 4.23728,9.41602 9.41601,9.41602 h 18.40291 v -21.75851 h 54.92075 v 21.75851 h 20.83455 c 5.17873,0 9.41601,-4.23729 9.41601,-9.41602 V 111.49609 L 210.07422,73.832031 Z"
         style="fill:#ffffff;fill-opacity:1;stroke-width:0.29424608" />
      <path
         inkscape:connector-curvature="0"
         style="fill:#c3c8cd;fill-opacity:1"
         d="m 384,128 h 96 L 352,0 v 96 c 0,17.6 14.4,32 32,32 z"
         id="path5339" />
      <polygon
         style="opacity:0.5;fill:#cad1d8"
         points="480,224 384,128 480,128 "
         id="polygon5341" />
      <g
         transform="translate(0,-1.9937279)"
         id="g5351">
        <g
           transform="matrix(1.0802835,0,0,1.1692098,-15.611613,-48.95078)"
           id="g1004" />
      </g>
      <path
         inkscape:connector-curvature="0"
         style="opacity:0.8;fill:#cad1d8;stroke-width:1.00658667"
         d="M 395.51729,383.24597 H 87.499415 v 16 H 395.51729 c 8.91631,0 16.21147,-7.2 16.21147,-16 v -16 c 0,8.8 -7.29516,16 -16.21147,16 z"
         id="path5353" />
      <g
         id="g5355" />
      <g
         id="g5357" />
      <g
         id="g5359" />
      <g
         id="g5361" />
      <g
         id="g5363" />
      <g
         id="g5365" />
      <g
         id="g5367" />
      <g
         id="g5369" />
      <g
         id="g5371" />
      <g
         id="g5373" />
      <g
         id="g5375" />
      <g
         id="g5377" />
      <g
         id="g5379" />
      <g
         id="g5381" />
      <g
         id="g5383" />
    </g>
    <path
       sodipodi:nodetypes="cccccccc"
       inkscape:connector-curvature="0"
       id="path5387"
       d="m 105.94104,157.75196 v 5.52506 h -5.67569 l 9.80242,8.24747 9.80275,-8.24747 h -5.67569 v -5.52506 z"
       style="display:inline;opacity:1;vector-effect:none;fill:url(#linearGradient1171);fill-opacity:1;stroke:none;stroke-width:0.06732211;stroke-linecap:butt;stroke-linejoin:miter;stroke-miterlimit:4;stroke-dasharray:none;stroke-dashoffset:0;stroke-opacity:1" />
    <path
       id="path5343"
       d="m 118.9324,150.29342 c 0,0.62563 -0.51187,1.1375 -1.1375,1.1375 H 93.828328 c -0.625623,0 -1.137496,-0.51187 -1.137496,-1.1375 v -11.37496 c 0,-0.62562 0.511873,-1.13749 1.137496,-1.13749 H 117.7949 c 0.62563,0 1.1375,0.51187 1.1375,1.13749 z"
       style="display:inline;fill:url(#linearGradient1060);fill-opacity:1;stroke:url(#linearGradient1076);stroke-width:1;stroke-miterlimit:4;stroke-dasharray:none;paint-order:normal"
       inkscape:connector-curvature="0"
       sodipodi:nodetypes="sssssssss" />
    <path
       inkscape:connector-curvature="0"
       style="display:inline;fill:url(#linearGradient1066);fill-opacity:1;stroke-width:0.07989966"
       d="m 96.590846,141.72331 c 0,-0.35111 0.255594,-0.73415 0.667249,-0.73415 h 2.269626 c 1.277969,0 2.428149,0.92566 2.428149,2.69985 0,1.68108 -1.15018,2.61738 -2.428149,2.61738 h -1.640472 v 1.40445 c 0,0.46815 -0.275255,0.73281 -0.629154,0.73281 -0.324408,0 -0.667249,-0.26466 -0.667249,-0.73281 z m 1.296403,0.60514 v 2.6493 h 1.640472 c 0.658649,0 1.179669,-0.62908 1.179669,-1.28874 0,-0.74346 -0.52102,-1.36056 -1.179669,-1.36056 z"
       id="path5345"
       sodipodi:nodetypes="ssssscssssccsssc" />
    <path
       inkscape:connector-curvature="0"
       style="display:inline;fill:url(#linearGradient1070);fill-opacity:1;stroke-width:0.07989966"
       d="m 103.8802,148.44365 c -0.32441,0 -0.67831,-0.19151 -0.67831,-0.65833 v -6.04073 c 0,-0.3817 0.3539,-0.65967 0.67831,-0.65967 h 2.24996 c 4.4901,0 4.3918,7.35873 0.0885,7.35873 z m 0.61932,-6.06068 v 4.76396 h 1.63064 c 2.65302,0 2.77099,-4.76396 0,-4.76396 z"
       id="path5347"
       sodipodi:nodetypes="sssssssccssc" />
    <path
       inkscape:connector-curvature="0"
       style="display:inline;fill:url(#linearGradient1068);fill-opacity:1;stroke-width:0.07989966"
       d="m 112.11451,142.46809 v 1.6904 h 2.50556 c 0.3539,0 0.70779,0.38303 0.70779,0.75409 0,0.35111 -0.35389,0.63839 -0.70779,0.63839 h -2.50556 v 2.23302 c 0,0.37239 -0.24454,0.65833 -0.58861,0.65833 -0.43254,0 -0.69674,-0.28594 -0.69674,-0.65833 v -6.04073 c 0,-0.3817 0.26543,-0.65967 0.69674,-0.65967 h 3.44929 c 0.43255,0 0.68814,0.27797 0.68814,0.65967 0,0.34047 -0.25559,0.7235 -0.68814,0.7235 h -2.86068 z"
       id="path5349"
       sodipodi:nodetypes="ccssscsssssssscc" />
  </g>
</svg>
