<?xml version="1.0" standalone="no"?>
<!DOCTYPE svg PUBLIC "-//W3C//DTD SVG 20010904//EN"
 "http://www.w3.org/TR/2001/REC-SVG-20010904/DTD/svg10.dtd">
<svg version="1.0" xmlns="http://www.w3.org/2000/svg"
 width="96.000000pt" height="96.000000pt" viewBox="0 0 96.000000 96.000000"
 preserveAspectRatio="xMidYMid meet">
<metadata>
Created by potrace 1.11, written by Peter Selinger 2001-2013
</metadata>
<g transform="translate(0.000000,96.000000) scale(0.100000,-0.100000)"
fill="#000000" stroke="none">
<path d="M319 828 c-19 -5 -57 -26 -84 -46 -72 -55 -109 -138 -118 -264 -1
-16 -6 -28 -11 -28 -4 0 -6 -6 -3 -14 3 -7 0 -19 -6 -25 -8 -8 -7 -11 4 -11
11 0 11 -2 1 -9 -7 -4 -15 -23 -17 -42 -2 -19 -4 -34 -5 -34 -2 0 -5 -15 -13
-57 -3 -16 -13 -60 -23 -98 -9 -39 -14 -73 -11 -77 9 -8 221 -8 235 1 6 4 21
2 32 -4 15 -8 20 -8 20 1 0 7 4 8 13 2 11 -8 28 -10 42 -3 6 2 54 3 58 0 8 -5
167 -1 192 5 133 34 207 146 207 315 0 46 -19 93 -34 84 -6 -4 -8 -3 -4 4 7
12 -42 54 -55 46 -5 -3 -9 0 -9 7 0 7 -3 10 -6 6 -3 -3 -16 -2 -29 3 -15 6
-27 4 -36 -3 -11 -10 -11 -9 -1 4 7 9 26 16 43 17 17 0 38 7 47 14 11 9 14 9
8 1 -4 -7 6 -5 23 5 17 9 31 21 31 25 0 5 4 6 9 2 5 -3 12 4 16 15 4 11 11 17
17 14 8 -5 9 -1 5 10 -4 10 -3 15 3 11 5 -3 16 8 25 25 8 16 12 30 8 30 -5 0
-2 4 5 9 7 4 14 14 15 22 2 8 6 20 10 27 10 15 15 15 -175 16 -96 1 -154 -2
-151 -8 4 -5 1 -6 -8 -1 -20 13 -49 13 -49 1 0 -7 -3 -8 -8 -1 -9 13 -165 15
-213 3z m211 -106 c0 -5 -7 -9 -15 -9 -8 0 -12 4 -9 9 3 4 9 8 15 8 5 0 9 -4
9 -8z m-7 -126 c18 2 38 6 45 9 6 2 12 0 12 -5 0 -6 9 -6 23 -1 20 8 23 6 23
-15 0 -13 -5 -24 -10 -24 -6 0 -4 -5 4 -10 8 -5 10 -10 5 -10 -15 0 -16 -41
-2 -60 10 -13 10 -13 -4 -2 -14 10 -17 9 -22 -8 -3 -13 -1 -18 5 -13 7 4 8 1
2 -8 -4 -8 -9 -18 -11 -24 -1 -5 -4 -21 -7 -34 -3 -13 -8 -26 -11 -29 -3 -3
-38 -6 -78 -6 -39 -1 -78 -5 -86 -10 -10 -6 -12 -6 -7 2 5 9 -4 11 -33 8 -23
-2 -44 0 -47 5 -3 5 0 9 7 9 8 0 7 5 -2 17 -8 9 -9 14 -3 10 7 -4 14 2 17 13
3 13 1 18 -6 14 -9 -5 -9 -4 0 6 6 7 9 19 6 26 -3 8 1 14 8 14 11 0 11 3 -1
10 -12 7 -12 10 -1 10 7 0 11 6 8 15 -4 8 -2 17 4 20 5 4 9 12 8 18 -1 7 2 22
6 35 6 19 13 22 46 19 21 -2 44 0 51 4 7 5 14 5 16 0 1 -5 17 -7 35 -5z"/>
</g>
</svg>
